<svg width="498" height="258" viewBox="0 0 498 258" fill="none" xmlns="http://www.w3.org/2000/svg">
<g opacity="0.07">
<path fill-rule="evenodd" clip-rule="evenodd" d="M315.92 142.304C262.865 124.213 211.015 116.976 177.253 149.541C100.082 224.318 84.4062 219.494 0 208.639C10.8522 165.22 32.5567 125.419 62.7018 94.0606C84.4062 81.9998 106.111 71.145 121.786 66.3206C209.81 42.1989 259.248 85.618 315.92 141.098" fill="white"/>
<path fill-rule="evenodd" clip-rule="evenodd" d="M248.394 0C172.429 0 102.492 33.7705 55.4661 86.8382C78.3763 73.5713 103.698 61.5104 121.785 55.48C214.632 30.1522 262.864 78.3956 320.743 136.288C397.914 211.065 412.384 206.241 497.996 195.386C470.262 83.22 368.975 0 248.394 0Z" fill="white" fill-opacity="0.6"/>
<path d="M245.988 299.103C223.078 299.103 204.991 281.012 204.991 258.096C204.991 235.181 223.078 217.09 245.988 217.09C268.898 217.09 286.985 235.181 286.985 258.096C286.985 281.012 268.898 299.103 245.988 299.103ZM330.394 258.096C330.394 241.211 325.571 224.326 315.925 211.059L332.806 194.174L308.69 170.052L291.809 186.937C278.545 178.495 262.869 173.67 245.988 173.67C229.107 173.67 213.432 178.495 200.168 186.937L183.286 170.052L159.17 194.174L176.052 211.059C166.405 224.326 161.582 241.211 161.582 258.096C161.582 274.982 166.405 290.661 174.846 303.928L159.17 319.607L183.286 343.729L198.962 328.049C212.226 337.698 229.107 342.522 245.988 342.522C262.869 342.522 279.751 337.698 293.014 328.049L308.69 343.729L332.806 319.607L317.131 303.928C325.571 290.661 330.394 274.982 330.394 258.096Z" fill="white" fill-opacity="0.6"/>
</g>
</svg>
