<svg width="26" height="26" viewBox="0 0 26 26" fill="none" xmlns="http://www.w3.org/2000/svg">
<path d="M18.0592 11.7759C18.07 11.6459 18.0809 11.5159 18.0809 11.375C18.0809 11.2342 18.07 11.1042 18.0592 10.9742L18.9584 10.3134C19.5 9.91254 19.6625 9.16504 19.3267 8.58004L18.525 7.15004C18.1892 6.54337 17.4525 6.30504 16.835 6.59754L15.8384 7.06337C15.6325 6.92254 15.4375 6.80337 15.2209 6.69504L15.1125 5.53587C15.0475 4.85337 14.4842 4.33337 13.8017 4.33337H12.1984C11.5159 4.33337 10.9525 4.85337 10.8875 5.53587L10.7792 6.69504C10.5625 6.80337 10.3675 6.92254 10.1617 7.06337L9.16505 6.59754C8.54755 6.30504 7.81088 6.55421 7.47505 7.15004L6.67338 8.58004C6.33755 9.16504 6.50005 9.91254 7.04171 10.3134L7.94088 10.9742C7.93005 11.1042 7.91921 11.2342 7.91921 11.375C7.91921 11.5159 7.93005 11.6459 7.94088 11.7759L7.04171 12.4367C6.50005 12.8375 6.33755 13.585 6.67338 14.17L7.47505 15.6C7.81088 16.1959 8.54755 16.445 9.16505 16.1525L10.1617 15.6867C10.3675 15.8275 10.5625 15.9467 10.7792 16.055L10.8875 17.2142C10.9525 17.8967 11.5159 18.4167 12.1984 18.4167H13.8017C14.4842 18.4167 15.0475 17.8967 15.1125 17.2142L15.2209 16.055C15.4375 15.9467 15.6325 15.8275 15.8384 15.6867L16.835 16.1525C17.4525 16.445 18.1892 16.2067 18.525 15.6L19.3267 14.17C19.6625 13.585 19.5 12.8375 18.9584 12.4367L18.0592 11.7759ZM15.7084 11.375C15.7084 12.87 14.495 14.0834 13 14.0834C11.505 14.0834 10.2917 12.87 10.2917 11.375C10.2917 9.88004 11.505 8.66671 13 8.66671C14.495 8.66671 15.7084 9.88004 15.7084 11.375Z" fill="#FF4E00"/>
<path d="M22.75 19.5H3.25C1.45817 19.5 0 20.9582 0 22.75C0 24.5418 1.45817 26 3.25 26H22.75C24.5418 26 26 24.5418 26 22.75C26 20.9582 24.5418 19.5 22.75 19.5ZM4.33333 23.8333C3.73642 23.8333 3.25 23.3469 3.25 22.75C3.25 22.1531 3.73642 21.6667 4.33333 21.6667C4.93025 21.6667 5.41667 22.1531 5.41667 22.75C5.41667 23.3469 4.93025 23.8333 4.33333 23.8333ZM9.75 23.8333C9.15308 23.8333 8.66667 23.3469 8.66667 22.75C8.66667 22.1531 9.15308 21.6667 9.75 21.6667C10.3469 21.6667 10.8333 22.1531 10.8333 22.75C10.8333 23.3469 10.3469 23.8333 9.75 23.8333ZM16.25 23.8333C15.6531 23.8333 15.1667 23.3469 15.1667 22.75C15.1667 22.1531 15.6531 21.6667 16.25 21.6667C16.8469 21.6667 17.3333 22.1531 17.3333 22.75C17.3333 23.3469 16.8469 23.8333 16.25 23.8333ZM21.6667 23.8333C21.0697 23.8333 20.5833 23.3469 20.5833 22.75C20.5833 22.1531 21.0697 21.6667 21.6667 21.6667C22.2636 21.6667 22.75 22.1531 22.75 22.75C22.75 23.3469 22.2636 23.8333 21.6667 23.8333Z" fill="#9B9995"/>
</svg>
