<svg width="24" height="24" viewBox="0 0 24 24" fill="none" xmlns="http://www.w3.org/2000/svg">
    <path
        opacity="0.6"
        d="M9.56421 8.73049L10.0792 10.5935C10.5642 12.3485 10.8062 13.2265 11.5192 13.6255C12.2322 14.0255 13.1372 13.7895 14.9472 13.3195L16.8672 12.8195C18.6772 12.3495 19.5822 12.1145 19.9942 11.4235C20.4062 10.7315 20.1642 9.85349 19.6782 8.09849L19.1642 6.23649C18.6792 4.48049 18.4362 3.60249 17.7242 3.20349C17.0102 2.80349 16.1052 3.03949 14.2952 3.51049L12.3752 4.00849C10.5652 4.47849 9.66021 4.71449 9.24921 5.40649C8.83721 6.09749 9.07921 6.97549 9.56421 8.73049Z"
        fill="#59554E"
    />
    <path
        d="M2.27719 5.24678C2.30353 5.15181 2.34834 5.06296 2.40905 4.98531C2.46976 4.90766 2.54518 4.84274 2.63099 4.79426C2.71681 4.74578 2.81134 4.71469 2.90917 4.70277C3.00701 4.69085 3.10624 4.69833 3.20119 4.72478L4.90419 5.19678C5.3554 5.31963 5.76714 5.55714 6.09938 5.88623C6.43161 6.21531 6.67304 6.62477 6.80019 7.07478L8.95119 14.8608L9.10919 15.4078C9.74694 15.6428 10.2844 16.0902 10.6312 16.6748L10.9412 16.5788L19.8112 14.2738C19.9065 14.249 20.0058 14.2432 20.1034 14.2567C20.201 14.2703 20.2949 14.3029 20.3799 14.3528C20.4649 14.4026 20.5392 14.4688 20.5986 14.5473C20.658 14.6259 20.7014 14.7154 20.7262 14.8108C20.751 14.9061 20.7568 15.0054 20.7433 15.103C20.7297 15.2006 20.6971 15.2945 20.6472 15.3795C20.5973 15.4645 20.5312 15.5388 20.4526 15.5982C20.374 15.6576 20.2845 15.701 20.1892 15.7258L11.3522 18.0218L11.0222 18.1238C11.0162 19.3938 10.1392 20.5558 8.81219 20.8998C7.22219 21.3138 5.58719 20.3978 5.16119 18.8558C4.73519 17.3138 5.67919 15.7268 7.26919 15.3138C7.34852 15.2938 7.42752 15.2764 7.50619 15.2618L5.35419 7.47378C5.29599 7.27383 5.18718 7.09229 5.03827 6.94671C4.88936 6.80113 4.7054 6.69644 4.50419 6.64278L2.80019 6.16978C2.70523 6.14354 2.61638 6.09884 2.5387 6.03824C2.46102 5.97765 2.39604 5.90234 2.34747 5.81663C2.29891 5.73092 2.2677 5.63648 2.25564 5.5387C2.24358 5.44092 2.2509 5.34173 2.27719 5.24678Z"
        fill="#FF4E00"
    />
</svg>