<svg width="24" height="24" viewBox="0 0 24 24" fill="none" xmlns="http://www.w3.org/2000/svg">
    <path
        opacity="0.6"
        d="M20.0002 21.9997C20.5502 21.9997 21.0209 21.8041 21.4122 21.4127C21.8036 21.0214 21.9996 20.5504 22.0002 19.9997V11.2997C22.0002 10.8997 21.8919 10.5331 21.6752 10.1997C21.4586 9.86639 21.1586 9.61639 20.7752 9.44973L16.4002 7.59973C16.0669 7.46639 15.7502 7.49139 15.4502 7.67473C15.1502 7.85806 15.0002 8.13306 15.0002 8.49973V8.99973L11.3752 7.54973C11.0419 7.41639 10.7296 7.44973 10.4382 7.64973C10.1469 7.84973 10.0009 8.12473 10.0002 8.47473V9.99973H2.00024V19.9997C2.00024 20.5497 2.19591 21.0207 2.58724 21.4127C2.97858 21.8047 3.44958 22.0004 4.00024 21.9997H20.0002ZM13.0002 17.9997H11.0002V13.9997H13.0002V17.9997ZM17.0002 17.9997H15.0002V13.9997H17.0002V17.9997ZM9.00024 17.9997H7.00024V13.9997H9.00024V17.9997Z"
        fill="#59554E"
    />
    <path
        d="M2.2002 8.5H6.8252L6.10019 2.875C6.06686 2.625 5.95419 2.41667 5.76219 2.25C5.57019 2.08333 5.34953 2 5.10019 2H3.87519C3.62519 2 3.40853 2.08333 3.22519 2.25C3.04186 2.41667 2.93353 2.625 2.90019 2.875L2.2002 8.5Z"
        fill="#FF4E00"
    />
</svg>