<svg width="24" height="24" viewBox="0 0 24 24" fill="none" xmlns="http://www.w3.org/2000/svg">
<g clip-path="url(#clip0_9672_2429)">
<path d="M13.1373 5.12409C12.0671 4.05383 10.6442 3.4646 9.13079 3.4646C7.61724 3.4646 6.1945 4.05383 5.12425 5.12409C2.91508 7.33325 2.91508 10.928 5.12425 13.1372C6.1945 14.2072 7.61724 14.7966 9.13079 14.7966C10.6442 14.7966 12.0671 14.2072 13.1373 13.1372C15.3465 10.928 15.3465 7.33325 13.1373 5.12409Z" fill="#FF4E00"/>
<path opacity="0.6" d="M18.2776 14.9609L17.1166 16.122L16.1016 15.107C19.1955 11.5037 19.0361 6.05078 15.6233 2.63806C12.0433 -0.942017 6.21811 -0.942017 2.63822 2.63806C-0.941864 6.21796 -0.941864 12.0431 2.63822 15.6232C4.42826 17.4132 6.77951 18.3082 9.13077 18.3082C11.2623 18.3082 13.3938 17.5727 15.1073 16.1014L16.1221 17.1164L14.961 18.2775L20.6366 23.953L23.9532 20.6364L18.2776 14.9609ZM9.13077 16.2031C7.24167 16.2031 5.46555 15.4674 4.12979 14.1316C1.37222 11.374 1.37222 6.88721 4.12979 4.12964C5.46555 2.79389 7.24167 2.05817 9.13077 2.05817C11.0197 2.05817 12.7958 2.79389 14.1318 4.12964C16.8891 6.88721 16.8891 11.374 14.1318 14.1316C12.7958 15.4674 11.0199 16.2031 9.13077 16.2031Z" fill="#59554E"/>
</g>
<defs>
<clipPath id="clip0_9672_2429">
<rect width="24" height="24" fill="white"/>
</clipPath>
</defs>
</svg>
