<svg width="30" height="30" viewBox="0 0 30 30" fill="none" xmlns="http://www.w3.org/2000/svg">
<path opacity="0.6" d="M10.8583 21.6841L11.3729 24.532C11.4602 25.051 10.8583 25.4827 10.4265 25.221L7.83595 23.8429C7.66149 23.7557 7.40419 23.7557 7.22973 23.8429L4.64347 25.221C4.12451 25.4827 3.60555 25.051 3.69275 24.532L4.12451 21.6841C4.21171 21.5096 4.12451 21.3395 3.9501 21.1651L1.8785 19.1807C1.53395 18.749 1.70835 18.1471 2.22737 18.0598L5.07523 17.6281C5.33259 17.6281 5.507 17.4537 5.58989 17.2835L6.88522 14.693C7.14683 14.2612 7.74874 14.2612 8.01041 14.693L9.38858 17.1963C9.56299 17.3664 9.73308 17.5409 9.90755 17.5409L12.7555 17.9726C13.2744 18.0598 13.4445 18.749 13.1 19.0935L11.0284 21.1651C10.8583 21.2523 10.8583 21.5096 10.8583 21.6841Z" fill="#59554E"/>
<path opacity="0.6" d="M25.8742 21.7713L26.3932 24.6192C26.4804 25.1382 25.8742 25.5699 25.4424 25.3083L22.8562 23.9301C22.6818 23.8429 22.4244 23.8429 22.25 23.9301L19.6594 25.3083C19.1447 25.5699 18.6258 25.1382 18.713 24.6192L19.232 21.7713C19.3149 21.5969 19.232 21.4267 19.0575 21.2523L16.9859 19.1807C16.6414 18.749 16.8115 18.1471 17.3305 18.0598L20.1784 17.6281C20.4401 17.5409 20.6102 17.4537 20.6974 17.2835L21.9926 14.693C22.25 14.2612 22.8562 14.2612 23.1135 14.693L24.4088 17.2835C24.5833 17.4537 24.7534 17.6281 24.9278 17.6281L27.7757 18.0598C28.2946 18.1427 28.4648 18.8362 28.1202 19.1807L26.0486 21.2523C25.8742 21.3395 25.8742 21.5969 25.8742 21.7713Z" fill="#59554E"/>
<path d="M18.3684 12.0152L18.8831 14.8631C18.9703 15.3821 18.3684 15.8139 17.9366 15.5565L15.3461 14.174C15.1716 14.0868 14.9143 14.0868 14.7399 14.174L12.1536 15.5565C11.6346 15.8139 11.1156 15.3821 11.2029 14.8631L11.7218 12.0152C11.8047 11.8451 11.7218 11.6707 11.5474 11.5006L9.47581 9.42898C9.13125 8.99716 9.30135 8.39099 9.82037 8.30379L12.6683 7.87203C12.9299 7.87203 13.1 7.70188 13.1872 7.52747L14.4825 4.93686C14.7399 4.5051 15.3461 4.5051 15.6034 4.93686L16.8987 7.52747C17.0731 7.70188 17.2432 7.87203 17.4176 7.87203L20.2656 8.30379C20.7845 8.39099 20.9547 9.08005 20.6101 9.42898L18.5385 11.5006C18.3684 11.5834 18.3684 11.8451 18.3684 12.0152Z" fill="#FF4E00"/>
</svg>
