<svg width="22" height="25" viewBox="0 0 22 25" fill="none" xmlns="http://www.w3.org/2000/svg">
<path d="M14.8032 14.0399C15.5088 14.0399 16.0954 14.6192 15.9355 15.3065C15.7837 15.9592 15.5149 16.5826 15.1388 17.1455C14.5246 18.0648 13.6515 18.7813 12.6301 19.2044C11.6086 19.6275 10.4847 19.7382 9.40032 19.5225C8.31597 19.3068 7.31993 18.7744 6.53815 17.9926C5.75638 17.2108 5.22398 16.2148 5.00829 15.1304C4.7926 14.0461 4.9033 12.9221 5.32639 11.9007C5.74949 10.8792 6.46597 10.0062 7.38524 9.39197C7.94815 9.01585 8.57161 8.74711 9.22424 8.59528C9.91155 8.43538 10.4909 9.02194 10.4909 9.7276V12.7622C10.4909 13.4678 11.0629 14.0399 11.7686 14.0399H14.8032Z" fill="#9B9995"/>
<path d="M11.2895 9.85241C11.2895 9.14675 11.8798 8.29205 12.5448 8.52821C12.5911 8.54466 12.6415 8.56412 12.6966 8.58697C13.4246 8.88849 14.086 9.33042 14.6431 9.88755C15.2002 10.4447 15.6422 11.1061 15.9437 11.834C15.9665 11.8892 15.986 11.9395 16.0024 11.9858C16.2386 12.6508 15.3839 13.2411 14.6782 13.2411L12.5672 13.2411C11.8616 13.2411 11.2895 12.6691 11.2895 11.9634V9.85241Z" fill="#FF4E00"/>
<path d="M0 14.079C0 19.8835 4.693 24.7 10.621 24.7C16.4255 24.7 21.242 20.007 21.242 14.079C21.242 11.2385 20.1305 8.7685 18.4015 6.916L19.0894 6.22812C19.4598 5.85774 19.4598 5.25725 19.0894 4.88688L18.7016 4.49912C18.3312 4.12874 17.7308 4.12874 17.3604 4.49912L16.549 5.3105C15.1905 4.3225 13.585 3.705 11.856 3.5815V2.3465H12.1426C12.6664 2.3465 13.091 1.92189 13.091 1.3981V0.948395C13.091 0.424611 12.6664 0 12.1426 0H9.34639C8.82261 0 8.398 0.424611 8.398 0.948395V1.3981C8.398 1.92189 8.82261 2.3465 9.34639 2.3465H9.633V3.5815C4.199 4.199 0 8.645 0 14.079ZM2.3465 14.079C2.3465 9.5095 6.0515 5.8045 10.621 5.8045C15.1905 5.8045 18.8955 9.5095 18.8955 14.079C18.8955 18.6485 15.1905 22.3535 10.621 22.3535C6.0515 22.3535 2.3465 18.6485 2.3465 14.079Z" fill="#9B9995"/>
</svg>
