<svg width="24" height="24" viewBox="0 0 24 24" fill="none" xmlns="http://www.w3.org/2000/svg">
<g clip-path="url(#clip0_9672_2468)">
<path d="M18.75 0C15.855 0 13.5 2.355 13.5 5.25C13.5 7.944 17.712 12.7155 18.192 13.251C18.3345 13.4085 18.537 13.5 18.75 13.5C18.963 13.5 19.1655 13.4085 19.308 13.251C19.788 12.7155 24 7.944 24 5.25C24 2.355 21.645 0 18.75 0ZM18.75 7.5C17.508 7.5 16.5 6.492 16.5 5.25C16.5 4.008 17.508 3 18.75 3C19.992 3 21 4.008 21 5.25C21 6.492 19.992 7.5 18.75 7.5Z" fill="#FF4E00"/>
<path opacity="0.6" d="M0.471 8.811C0.1875 8.925 0 9.201 0 9.5085V23.25C0 23.499 0.1245 23.7315 0.33 23.871C0.456 23.955 0.6015 24 0.75 24C0.8445 24 0.939 23.982 1.029 23.946L7.5 21.357V6L0.471 8.811Z" fill="#59554E"/>
<path opacity="0.6" d="M20.424 14.2531C19.998 14.7271 19.3875 15.0001 18.75 15.0001C18.1125 15.0001 17.502 14.7271 17.076 14.2531C16.923 14.0836 16.7265 13.8601 16.5 13.5946V24.0001L23.529 21.1891C23.814 21.0766 24 20.7991 24 20.4931V9.46655C22.7715 11.5471 21.129 13.4671 20.424 14.2531Z" fill="#59554E"/>
<path opacity="0.6" d="M12.4725 7.389L9 6V21.357L15 23.757V11.712C14.0415 10.4205 13.041 8.865 12.4725 7.389Z" fill="#59554E"/>
</g>
<defs>
<clipPath id="clip0_9672_2468">
<rect width="24" height="24" fill="white"/>
</clipPath>
</defs>
</svg>
