<svg width="18" height="20" viewBox="0 0 18 20" fill="none" xmlns="http://www.w3.org/2000/svg">
    <path
        opacity="0.6"
        d="M8.63889 6C10.4954 6 12.2759 6.7375 13.5886 8.05025C14.9014 9.36301 15.6389 11.1435 15.6389 13C15.6389 14.8565 14.9014 16.637 13.5886 17.9497C12.2759 19.2625 10.4954 20 8.63889 20C6.78237 20 5.0019 19.2625 3.68914 17.9497C2.37639 16.637 1.63889 14.8565 1.63889 13C1.63889 11.1435 2.37639 9.36301 3.68914 8.05025C5.0019 6.7375 6.78237 6 8.63889 6ZM8.63889 11C8.10846 11 7.59975 11.2107 7.22468 11.5858C6.8496 11.9609 6.63889 12.4696 6.63889 13C6.63889 13.5304 6.8496 14.0391 7.22468 14.4142C7.59975 14.7893 8.10846 15 8.63889 15C9.16932 15 9.67803 14.7893 10.0531 14.4142C10.4282 14.0391 10.6389 13.5304 10.6389 13C10.6389 12.4696 10.4282 11.9609 10.0531 11.5858C9.67803 11.2107 9.16932 11 8.63889 11ZM6.05889 8.88702e-08C6.38356 -3.0676e-05 6.70336 0.078981 6.99066 0.23021C7.27796 0.381439 7.52413 0.600339 7.70789 0.868L7.79489 1.008L9.52989 4.044C8.32109 3.92198 7.1001 4.0468 5.94099 4.41088C4.78188 4.77496 3.70882 5.37071 2.78689 6.162L2.55489 6.368L0.19789 2.244C0.0729139 2.02547 0.00494989 1.77899 0.000260328 1.52729C-0.00442924 1.27559 0.0543065 1.02675 0.171055 0.803713C0.287804 0.580675 0.458811 0.390608 0.668317 0.251026C0.877824 0.111444 1.11909 0.0268367 1.36989 0.0050002L1.49889 8.88702e-08H6.05889ZM15.7769 8.88702e-08C16.0397 -9.03486e-05 16.2978 0.0688449 16.5256 0.199905C16.7533 0.330965 16.9426 0.51955 17.0746 0.746783C17.2065 0.974015 17.2765 1.23192 17.2774 1.49468C17.2783 1.75744 17.2102 2.01584 17.0799 2.244L14.7229 6.368C13.8834 5.59678 12.9051 4.99206 11.8399 4.586L9.79489 1.008C9.74844 0.926436 9.69632 0.848243 9.63889 0.774C9.82582 0.533073 10.0654 0.33808 10.3409 0.20393C10.6131 0.0697798 10.9139 2.53713e-05 11.2189 8.88702e-08H15.7769Z"
        fill="#59554E"
    />
    <path
        d="M15.7786 8.88702e-08C16.0414 -9.03486e-05 16.2996 0.0688449 16.5273 0.199905C16.7551 0.330965 16.9444 0.51955 17.0763 0.746783C17.2083 0.974015 17.2782 1.23192 17.2791 1.49468C17.2801 1.75744 17.212 2.01584 17.0816 2.244L14.7246 6.368C13.8852 5.59678 12.9068 4.99206 11.8416 4.586L9.79663 1.008C9.75018 0.926436 9.69805 0.848243 9.64062 0.774C9.82755 0.533073 10.0671 0.33808 10.3409 0.20393C10.6148 0.0697798 10.9157 2.53713e-05 11.2206 8.88702e-08H15.7786Z"
        fill="#FF4E00"
    />
</svg>