<svg width="131" height="32" viewBox="0 0 131 32" fill="none" xmlns="http://www.w3.org/2000/svg">
<path d="M61.9013 29.3769V2.32299H68.1964V13.1146H69.1706L75.5407 2.32299H82.7351L75.0161 15.3628V15.7375L83.3346 29.3769H75.9903L69.3205 18.2856H68.3463V29.3769H62.0512H61.9013ZM101.62 24.2809H94.2761L93.3018 29.302H86.9318L92.8522 2.24805H103.119L108.965 29.302H102.595L101.62 24.2809ZM95.4002 19.035H100.571L98.248 7.64385H97.6485L95.3253 19.035H95.4002ZM117.358 7.79373H110.538V2.24805H130.548V7.79373H123.728V29.302H117.433V7.79373H117.358ZM56.1308 18.4354V23.9811C56.1308 26.754 54.9317 29.302 50.9598 29.302H41.742C38.4446 29.302 36.4961 27.5034 36.4961 23.9811V7.19419C36.4961 3.59699 38.3696 2.24805 41.2924 2.24805H51.1846C54.9317 2.24805 56.1308 4.12159 56.1308 7.86867V11.7656H49.9106V7.86867H42.6413V23.7563H49.9106V18.4354H56.1308Z" fill="#59554E"/>
<path fill-rule="evenodd" clip-rule="evenodd" d="M19.6347 8.84321C16.3373 7.71909 13.1148 7.26944 11.0164 9.29286C6.22015 13.9392 5.24591 13.6395 0 12.965C0.674475 10.2671 2.02342 7.79403 3.89696 5.84555C5.24591 5.09613 6.59486 4.42165 7.56911 4.12189C13.0398 2.62306 16.1124 5.32096 19.6347 8.76827" fill="#59554E"/>
<path fill-rule="evenodd" clip-rule="evenodd" d="M11.3164 23.3066C14.6138 24.4307 17.8363 24.8804 19.9347 22.8569C24.731 18.2106 25.7052 18.5103 30.9511 19.1848C30.2766 21.8827 28.9277 24.3558 27.0541 26.3043C25.7052 27.0537 24.3562 27.7281 23.382 28.0279C17.9113 29.5267 14.8387 26.8289 11.3164 23.3815" fill="#59554E"/>
<path fill-rule="evenodd" clip-rule="evenodd" d="M15.438 0C10.7167 0 6.37008 2.09837 3.44736 5.3958C4.87125 4.57144 6.44502 3.82203 7.56915 3.44732C13.3397 1.87355 16.3373 4.87121 19.9345 8.4684C24.7308 13.1148 25.6301 12.815 30.9509 12.1405C29.2273 5.17097 22.9322 0 15.438 0Z" fill="#FF4E00"/>
<path fill-rule="evenodd" clip-rule="evenodd" d="M15.5129 32.0002C20.2342 32.0002 24.5809 29.9018 27.5036 26.6044C26.0797 27.4287 24.5059 28.1781 23.3818 28.5528C17.6113 30.1266 14.6136 27.1289 11.0164 23.5318C6.22015 18.8854 5.32085 19.1851 0 19.8596C1.72366 26.8292 8.01875 32.0002 15.5129 32.0002Z" fill="#FF4E00"/>
<path d="M15.2884 18.5852C13.8645 18.5852 12.7404 17.461 12.7404 16.0371C12.7404 14.6133 13.8645 13.4891 15.2884 13.4891C16.7123 13.4891 17.8364 14.6133 17.8364 16.0371C17.8364 17.461 16.7123 18.5852 15.2884 18.5852ZM20.5343 16.0371C20.5343 14.988 20.2345 13.9388 19.635 13.1144L20.6842 12.0652L19.1853 10.5664L18.1362 11.6156C17.3118 11.091 16.3376 10.7912 15.2884 10.7912C14.2392 10.7912 13.265 11.091 12.4406 11.6156L11.3914 10.5664L9.89258 12.0652L10.9418 13.1144C10.3422 13.9388 10.0425 14.988 10.0425 16.0371C10.0425 17.0863 10.3422 18.0606 10.8668 18.8849L9.89258 19.8592L11.3914 21.358L12.3657 20.3838C13.19 20.9833 14.2392 21.2831 15.2884 21.2831C16.3376 21.2831 17.3867 20.9833 18.2111 20.3838L19.1853 21.358L20.6842 19.8592L19.7099 18.8849C20.2345 18.0606 20.5343 17.0863 20.5343 16.0371Z" fill="#FF4E00"/>
</svg>
