<svg width="34" height="48" viewBox="0 0 34 48" fill="none" xmlns="http://www.w3.org/2000/svg">
<path d="M30.721 4.64252C30.4019 4.64252 30.1014 4.58269 29.8196 4.46304C29.5404 4.34074 29.2945 4.17323 29.0818 3.96052C28.8691 3.74781 28.7016 3.50187 28.5793 3.22269C28.4596 2.94085 28.3998 2.6404 28.3998 2.32134C28.3998 2.00227 28.4596 1.70315 28.5793 1.42397C28.7016 1.14213 28.8691 0.894861 29.0818 0.682152C29.2945 0.469444 29.5404 0.303265 29.8196 0.183617C30.1014 0.0613097 30.4019 0.000156087 30.721 0.000156087C31.0427 0.000156087 31.3431 0.0613097 31.6223 0.183617C31.9042 0.303265 32.1514 0.469444 32.3641 0.682152C32.5768 0.894861 32.743 1.14213 32.8627 1.42397C32.9823 1.70315 33.0421 2.00227 33.0421 2.32134C33.0421 2.6404 32.9823 2.94085 32.8627 3.22269C32.743 3.50187 32.5768 3.74781 32.3641 3.96052C32.1514 4.17323 31.9042 4.34074 31.6223 4.46304C31.3431 4.58269 31.0427 4.64252 30.721 4.64252ZM30.721 4.08416C31.048 4.08416 31.3445 4.00572 31.6103 3.84885C31.8762 3.68932 32.0876 3.47661 32.2445 3.21072C32.404 2.94218 32.4838 2.64572 32.4838 2.32134C32.4838 1.99696 32.404 1.70182 32.2445 1.43594C32.0876 1.16739 31.8762 0.954685 31.6103 0.797812C31.3445 0.638281 31.048 0.558515 30.721 0.558515C30.3966 0.558515 30.1001 0.638281 29.8316 0.797812C29.5657 0.954685 29.353 1.16739 29.1934 1.43594C29.0366 1.70182 28.9581 1.99696 28.9581 2.32134C28.9581 2.64572 29.0366 2.94218 29.1934 3.21072C29.353 3.47661 29.5657 3.68932 29.8316 3.84885C30.1001 4.00572 30.3966 4.08416 30.721 4.08416ZM31.1318 3.37823L30.7728 2.68826C30.7728 2.68826 30.7715 2.68826 30.7688 2.68826H30.4019V3.37823H29.8675V1.24051H30.8007C31.0613 1.24051 31.2687 1.30698 31.4229 1.43993C31.5771 1.57021 31.6542 1.74835 31.6542 1.97436C31.6542 2.25088 31.5319 2.45162 31.2873 2.57659L31.714 3.37823H31.1318ZM30.4019 2.25354H30.7608C30.8699 2.25354 30.9563 2.22828 31.0201 2.17776C31.0839 2.12458 31.1158 2.05678 31.1158 1.97436C31.1158 1.88927 31.0839 1.82147 31.0201 1.77095C30.9563 1.71778 30.8699 1.69119 30.7608 1.69119H30.4019V2.25354Z" fill="#59554E"/>
<path d="M14.8516 2.53613C19.6782 2.53613 23.2297 4.96756 25.6006 8.96875C27.9856 12.9939 29.167 18.6032 29.167 24.8604C29.167 31.1174 27.9856 36.7268 25.6006 40.752C23.2297 44.7531 19.6782 47.1855 14.8516 47.1855C10.025 47.1855 6.47442 44.7531 4.10352 40.752C1.7184 36.7268 0.537109 31.1176 0.537109 24.8604C0.537118 18.6031 1.71838 12.9939 4.10352 8.96875C6.47442 4.9676 10.025 2.53617 14.8516 2.53613Z" stroke="#59554E" stroke-width="1.07349"/>
<path opacity="0.4" d="M9.51758 28.6698C9.51758 28.6698 10.2792 25.6216 14.8489 25.4311C19.4187 25.2406 20.1803 22.1924 20.1803 22.1924" stroke="#59554E" stroke-width="0.966143"/>
<path d="M8.82617 22.2783V10.0811H10.8306L13.9232 17.956C13.9996 18.1416 14.0896 18.3763 14.1932 18.66C14.3023 18.9384 14.4114 19.2276 14.5205 19.5278C14.635 19.8225 14.7359 20.0926 14.8232 20.3382C14.9105 20.0926 15.0087 19.8225 15.1177 19.5278C15.2323 19.2276 15.3414 18.9384 15.445 18.66C15.5541 18.3763 15.6441 18.1416 15.715 17.956L18.7585 10.0811H20.7712V22.2783H19.323V15.2055C19.323 14.7689 19.3285 14.2832 19.3394 13.7484C19.3503 13.2081 19.3612 12.6733 19.3721 12.1439C19.1376 12.7879 18.9221 13.3773 18.7258 13.9121C18.5294 14.4469 18.3658 14.8781 18.2349 15.2055L15.4041 22.2783H14.1932L11.3461 15.2055C11.2206 14.8945 11.0624 14.4879 10.8715 13.9858C10.6806 13.4837 10.4679 12.9298 10.2334 12.324C10.2498 12.8261 10.2607 13.3282 10.2661 13.8303C10.277 14.3323 10.2825 14.7908 10.2825 15.2055V22.2783H8.82617Z" fill="#59554E"/>
<path d="M8.82617 28.2042V40.4014H10.8306L13.9232 32.5264C13.9996 32.3408 14.0896 32.1062 14.1932 31.8224C14.3023 31.5441 14.4114 31.2548 14.5205 30.9547C14.635 30.66 14.7359 30.3898 14.8232 30.1442C14.9105 30.3898 15.0087 30.66 15.1177 30.9547C15.2323 31.2548 15.3414 31.5441 15.445 31.8224C15.5541 32.1062 15.6441 32.3408 15.715 32.5264L18.7585 40.4014H20.7712V28.2042H19.323V35.2769C19.323 35.7135 19.3285 36.1992 19.3394 36.734C19.3503 37.2743 19.3612 37.8091 19.3721 38.3385C19.1376 37.6945 18.9221 37.1051 18.7258 36.5703C18.5294 36.0355 18.3658 35.6043 18.2349 35.2769L15.4041 28.2042H14.1932L11.3461 35.2769C11.2206 35.588 11.0624 35.9945 10.8715 36.4966C10.6806 36.9987 10.4679 37.5526 10.2334 38.1584C10.2498 37.6563 10.2607 37.1542 10.2661 36.6522C10.277 36.1501 10.2825 35.6917 10.2825 35.2769V28.2042H8.82617Z" fill="#59554E"/>
</svg>
